<?xml version="1.0" standalone="no"?>
<!DOCTYPE svg PUBLIC "-//W3C//DTD SVG 20010904//EN"
 "http://www.w3.org/TR/2001/REC-SVG-20010904/DTD/svg10.dtd">
<svg version="1.0" xmlns="http://www.w3.org/2000/svg"
 width="3015.000000pt" height="815.000000pt" viewBox="0 0 3015.000000 815.000000"
 preserveAspectRatio="xMidYMid meet">
<metadata>
Created by potrace 1.14, written by Peter Selinger 2001-2017
</metadata>
<g transform="translate(0.000000,815.000000) scale(0.100000,-0.100000)"
fill="#000000" stroke="none">
<path d="M250 5100 l0 -2700 14820 0 14820 0 0 2700 0 2700 -14820 0 -14820 0
0 -2700z m29310 0 l0 -2370 -14490 0 -14490 0 0 2370 0 2370 14490 0 14490 0
0 -2370z"/>
<path d="M2465 6186 c-134 -32 -212 -74 -288 -155 -51 -55 -78 -102 -101 -180
-14 -48 -16 -138 -16 -731 0 -727 0 -721 52 -824 27 -52 99 -128 159 -167 121
-77 343 -110 503 -75 103 23 207 77 269 140 99 99 137 204 137 378 l0 108
-190 0 -190 0 0 -97 c0 -78 -4 -105 -21 -141 -64 -131 -254 -131 -318 1 -21
44 -21 48 -19 689 l3 644 27 41 c74 113 248 102 307 -19 17 -36 21 -63 21
-141 l0 -97 190 0 190 0 0 108 c0 170 -37 277 -130 372 -104 107 -216 151
-400 156 -84 2 -145 -1 -185 -10z"/>
<path d="M8535 6185 c-185 -41 -304 -133 -367 -284 l-23 -56 -3 -700 c-3 -678
-2 -701 18 -766 65 -215 260 -339 535 -339 99 0 196 18 265 48 111 48 215 158
261 275 l24 62 3 655 c2 438 -1 677 -8 720 -22 136 -117 268 -237 333 -116 62
-320 85 -468 52z m233 -299 c37 -19 68 -55 87 -98 13 -32 15 -121 15 -665 0
-704 2 -674 -73 -740 -82 -72 -205 -45 -257 58 -19 37 -20 61 -20 686 l0 648
24 39 c45 75 152 109 224 72z"/>
<path d="M16115 6186 c-134 -32 -212 -74 -288 -155 -51 -55 -78 -102 -101
-180 -14 -48 -16 -138 -16 -731 0 -727 0 -721 52 -824 27 -52 99 -128 159
-167 121 -77 343 -110 503 -75 103 23 207 77 269 140 99 99 137 204 137 378
l0 108 -190 0 -190 0 0 -97 c0 -78 -4 -105 -21 -141 -64 -131 -254 -131 -318
1 -21 44 -21 48 -19 689 l3 644 27 41 c74 113 248 102 307 -19 17 -36 21 -63
21 -141 l0 -97 190 0 190 0 0 108 c0 170 -37 277 -130 372 -104 107 -216 151
-400 156 -84 2 -145 -1 -185 -10z"/>
<path d="M17705 6185 c-185 -41 -304 -133 -367 -284 l-23 -56 -3 -700 c-3
-678 -2 -701 18 -766 65 -215 260 -339 535 -339 99 0 196 18 265 48 111 48
215 158 261 275 l24 62 3 655 c2 438 -1 677 -8 720 -22 136 -117 268 -237 333
-116 62 -320 85 -468 52z m233 -299 c37 -19 68 -55 87 -98 13 -32 15 -121 15
-665 0 -704 2 -674 -73 -740 -82 -72 -205 -45 -257 58 -19 37 -20 61 -20 686
l0 648 24 39 c45 75 152 109 224 72z"/>
<path d="M21080 6184 c-95 -21 -182 -66 -246 -126 -65 -62 -99 -115 -125 -199
-18 -57 -19 -103 -19 -739 0 -646 1 -681 20 -741 66 -216 262 -338 541 -339
235 0 405 93 494 272 57 116 64 182 65 576 l0 342 -275 0 -275 0 0 -150 0
-150 105 0 105 0 0 -183 c0 -202 -13 -277 -56 -334 -37 -49 -79 -67 -155 -68
-55 0 -72 4 -107 28 -23 15 -51 45 -62 67 -19 38 -20 57 -20 680 0 623 1 642
20 680 25 50 82 88 142 96 62 9 125 -21 164 -78 27 -38 29 -49 32 -150 l4
-108 189 0 189 0 0 94 c0 174 -38 284 -135 385 -103 108 -247 162 -429 160
-56 -1 -130 -7 -166 -15z"/>
<path d="M25901 6179 c-140 -36 -236 -100 -301 -200 -56 -87 -74 -164 -68
-301 10 -224 70 -322 423 -688 83 -85 167 -176 187 -201 115 -141 129 -323 32
-409 -31 -27 -41 -30 -101 -30 -62 0 -67 2 -103 38 -49 48 -60 91 -60 230 l0
112 -190 0 -190 0 0 -129 c0 -151 10 -214 49 -296 113 -242 489 -339 789 -204
118 53 223 179 251 300 17 72 13 199 -9 283 -37 146 -57 174 -410 579 -240
276 -277 333 -286 437 -5 55 -2 72 18 110 44 85 153 114 227 60 50 -35 73 -92
80 -195 l6 -90 188 -3 187 -2 0 103 c0 167 -39 275 -130 365 -134 132 -378
187 -589 131z"/>
<path d="M27501 6179 c-140 -36 -236 -100 -301 -200 -56 -87 -74 -164 -68
-301 10 -224 70 -322 423 -688 83 -85 167 -176 187 -201 115 -141 129 -323 32
-409 -31 -27 -41 -30 -101 -30 -62 0 -67 2 -103 38 -49 48 -60 91 -60 230 l0
112 -190 0 -190 0 0 -129 c0 -151 10 -214 49 -296 113 -242 489 -339 789 -204
118 53 223 179 251 300 17 72 13 199 -9 283 -37 146 -57 174 -410 579 -240
276 -277 333 -286 437 -5 55 -2 72 18 110 44 85 153 114 227 60 50 -35 73 -92
80 -195 l6 -90 188 -3 187 -2 0 103 c0 167 -39 275 -130 365 -134 132 -378
187 -589 131z"/>
<path d="M3700 5323 c0 -713 3 -858 15 -911 54 -228 231 -356 511 -369 284
-14 495 113 565 338 18 58 19 105 19 925 l0 864 -190 0 -190 0 0 -844 c0 -571
-3 -854 -11 -873 -15 -40 -67 -91 -107 -104 -77 -25 -174 18 -211 93 -21 44
-21 49 -21 886 l0 842 -190 0 -190 0 0 -847z"/>
<path d="M5390 5120 l0 -1050 435 0 435 0 0 150 0 150 -245 0 -245 0 0 900 0
900 -190 0 -190 0 0 -1050z"/>
<path d="M6810 5120 l0 -1050 435 0 435 0 0 150 0 150 -245 0 -245 0 0 900 0
900 -190 0 -190 0 0 -1050z"/>
<path d="M9810 5120 l0 -1050 185 0 185 0 0 420 0 420 138 0 c217 0 321 38
435 159 71 76 118 163 148 278 30 111 30 316 1 425 -57 210 -179 339 -363 383
-50 11 -135 15 -396 15 l-333 0 0 -1050z m650 728 c57 -29 85 -79 101 -178 12
-80 6 -239 -11 -302 -14 -49 -55 -97 -99 -115 -21 -9 -84 -17 -153 -21 l-118
-5 0 322 0 321 118 0 c102 0 124 -3 162 -22z"/>
<path d="M18990 5120 l0 -1050 190 0 190 0 2 600 3 600 184 -600 185 -600 188
0 188 0 0 1050 0 1050 -190 0 -190 0 -2 -572 -3 -572 -171 570 -170 569 -202
3 -202 2 0 -1050z"/>
<path d="M22370 5120 l0 -1050 185 0 185 0 0 420 0 420 63 0 62 -1 176 -417
175 -417 198 -3 c157 -2 197 0 193 10 -3 7 -91 208 -196 446 -105 238 -191
434 -191 436 0 2 20 16 43 30 24 14 68 51 98 83 105 114 157 251 166 440 15
290 -83 501 -275 598 -102 51 -139 55 -524 55 l-358 0 0 -1050z m672 740 c45
-13 93 -66 110 -122 8 -27 13 -98 13 -188 0 -164 -14 -221 -66 -264 -43 -37
-89 -46 -231 -46 l-128 0 0 315 0 315 133 0 c72 0 149 -5 169 -10z"/>
<path d="M24090 5120 l0 -1050 480 0 480 0 0 150 0 150 -290 0 -290 0 0 340 0
340 190 0 190 0 0 150 0 150 -190 0 -190 0 0 260 0 260 265 0 265 0 0 150 0
150 -455 0 -455 0 0 -1050z"/>
<path d="M13650 6004 c0 -28 -6 -54 -15 -64 -9 -9 -17 -37 -20 -61 -3 -33 -11
-48 -31 -63 -14 -11 -33 -34 -40 -53 -8 -18 -20 -33 -27 -33 -7 0 -18 -9 -25
-20 -7 -12 -17 -18 -23 -14 -15 9 -47 -24 -59 -62 -14 -41 -25 -42 -61 -8 -27
25 -27 26 -34 5 -3 -12 -10 -21 -15 -21 -7 0 -23 -42 -24 -65 -1 -5 -6 -14
-13 -20 -6 -5 -21 -35 -34 -65 -37 -91 -53 -101 -117 -79 -19 6 -35 22 -42 40
-11 25 -54 59 -74 59 -5 0 -20 -50 -30 -101 -3 -14 -17 -38 -30 -54 -14 -16
-23 -32 -20 -37 3 -5 -13 -29 -35 -55 -23 -25 -40 -51 -39 -57 3 -25 -26 -74
-77 -127 -29 -31 -65 -79 -78 -108 l-25 -52 20 -18 20 -19 -26 -18 c-15 -9
-25 -24 -24 -33 3 -10 -12 -27 -36 -43 -34 -23 -42 -25 -49 -13 -9 17 -43 20
-52 5 -4 -6 -24 -20 -47 -31 -37 -19 -41 -19 -58 -4 -22 20 -44 11 -37 -16 7
-26 -21 -46 -78 -54 -27 -4 -61 -13 -76 -20 -24 -13 -29 -12 -60 14 -34 29
-59 31 -59 5 0 -8 -6 -14 -14 -14 -7 0 -25 -9 -39 -20 -35 -28 -79 -26 -108 5
-13 13 -31 25 -39 25 -20 0 -60 44 -60 66 0 9 -8 26 -17 36 -15 17 -15 19 2
32 13 9 15 15 6 20 -13 9 -12 10 -126 -91 -44 -38 -100 -77 -123 -87 -73 -28
-150 -82 -154 -108 -2 -12 -17 -32 -35 -43 -23 -14 -32 -28 -33 -46 0 -28 -27
-45 -80 -51 -16 -2 -30 -14 -40 -34 -12 -25 -27 -35 -80 -53 -36 -12 -83 -25
-105 -30 -22 -4 -56 -16 -75 -27 l-35 -19 35 -3 c19 -2 248 -2 508 0 259 1
473 0 475 -4 7 -22 546 -31 1711 -29 677 1 1232 3 1234 6 2 2 -7 41 -22 87
-14 46 -29 99 -34 118 -6 23 -14 34 -23 31 -28 -9 -72 -1 -103 17 -28 17 -31
22 -28 61 4 44 -20 82 -45 74 -7 -3 -9 4 -6 16 5 18 1 21 -26 21 -17 0 -31 5
-31 10 0 6 10 10 23 10 42 0 50 14 26 44 -16 20 -19 30 -10 39 8 8 18 4 39
-16 15 -15 31 -27 35 -27 3 0 9 15 12 33 8 44 -9 87 -35 87 -11 0 -20 5 -20
10 0 6 7 10 15 10 8 0 15 4 15 9 0 5 -7 11 -15 15 -23 8 -18 26 8 26 21 1 21
1 4 14 -12 9 -14 16 -8 21 6 3 11 26 11 50 0 29 5 45 15 49 8 3 15 16 15 30 0
19 -10 29 -43 45 -46 22 -129 96 -140 124 -4 10 -19 18 -37 19 -16 1 -44 2
-60 3 -42 3 -80 25 -80 46 0 10 -8 22 -17 28 -10 5 -17 21 -18 38 0 25 -3 28
-30 25 -16 -2 -32 -7 -35 -11 -3 -4 -17 -11 -32 -15 -21 -5 -30 -2 -38 13 -26
49 9 155 56 167 15 4 24 13 24 25 0 12 10 23 25 29 22 8 25 15 25 58 0 40 -5
54 -29 79 -16 17 -40 33 -55 37 -16 4 -26 13 -26 25 0 19 -38 41 -73 41 -12 1
-33 10 -46 21 -21 17 -23 23 -13 37 24 34 24 43 -7 71 -16 15 -32 27 -34 24
-2 -2 -17 1 -32 7 -35 13 -46 4 -69 -60 -10 -28 -22 -50 -27 -48 -4 2 -54 41
-110 88 -56 47 -113 93 -125 103 l-24 19 0 -48z m271 -280 c68 -20 71 -23 57
-60 -9 -25 -8 -37 5 -63 14 -27 14 -38 3 -76 -8 -24 -12 -46 -9 -48 2 -3 0 -8
-6 -12 -6 -3 -11 1 -11 9 0 9 -7 16 -16 16 -12 0 -15 -7 -12 -25 7 -35 -20
-33 -28 3 -9 43 -26 82 -35 82 -11 0 -78 -58 -102 -87 -10 -13 -27 -23 -38
-23 -18 0 -17 -4 12 -38 39 -47 49 -111 19 -119 -11 -3 -20 -9 -20 -13 0 -14
-32 -21 -45 -10 -10 8 -19 4 -35 -17 l-21 -28 41 -17 c43 -19 43 -19 8 -70
l-18 -26 44 -26 c25 -14 49 -26 55 -26 21 0 21 -20 -1 -64 -18 -38 -19 -47 -8
-61 8 -9 15 -26 16 -38 3 -39 -19 -129 -33 -134 -28 -11 -43 -61 -43 -147 0
-82 1 -85 31 -110 17 -14 43 -29 57 -32 15 -3 37 -10 48 -16 12 -5 36 -7 53
-3 28 6 36 2 71 -33 49 -48 52 -90 15 -169 l-24 -53 -532 0 c-441 0 -530 2
-520 13 7 9 8 24 1 48 -13 43 -13 44 4 30 11 -10 17 -7 30 11 18 26 21 52 5
42 -6 -4 -36 -1 -66 6 -47 12 -56 11 -64 -1 -8 -12 -12 -11 -23 4 -8 10 -31
23 -51 28 l-36 10 25 24 c33 30 46 64 41 103 -5 42 17 60 51 42 23 -13 27 -11
54 18 16 18 30 46 32 64 2 26 9 35 33 43 17 5 38 20 49 33 17 21 20 22 35 8
20 -18 63 -21 91 -6 13 7 21 6 30 -5 9 -11 7 -16 -9 -25 -27 -14 -27 -42 0
-58 24 -15 21 -17 43 26 9 18 21 30 27 26 11 -6 78 22 94 41 6 6 32 28 59 50
41 33 46 40 33 50 -9 6 -23 30 -32 53 -10 23 -23 42 -31 42 -7 0 -20 13 -28
29 -9 16 -22 31 -31 35 -10 3 -15 15 -13 28 2 19 8 23 36 20 35 -2 92 31 92
55 0 7 14 26 30 41 17 16 30 39 30 50 0 35 19 74 40 79 11 3 20 11 20 17 0 7
10 18 23 25 26 14 87 101 87 124 0 8 7 20 15 27 8 7 15 18 15 26 0 7 7 17 16
22 9 5 17 24 19 43 2 19 3 37 4 42 1 4 10 7 21 7 12 0 29 15 45 40 14 22 29
40 34 40 4 0 20 18 35 40 30 45 32 46 107 24z"/>
<path d="M15089 5103 c-33 -3 -53 -11 -69 -28 -13 -14 -29 -25 -37 -25 -7 0
-13 -4 -13 -10 0 -5 7 -10 15 -10 8 0 15 -3 15 -8 0 -14 -31 -52 -43 -52 -18
-1 -84 -146 -102 -225 -27 -114 -27 -118 -12 -164 9 -24 13 -50 10 -57 -3 -8
0 -14 6 -14 6 0 11 7 11 15 0 8 6 12 14 9 20 -8 66 53 66 87 0 16 3 29 8 29
15 0 89 165 84 187 -4 18 47 135 70 159 11 13 27 20 37 17 14 -3 25 8 45 42
14 26 26 49 26 51 0 4 -56 3 -131 -3z"/>
<path d="M15960 1300 c-148 -23 -254 -98 -284 -201 -45 -150 10 -282 147 -349
40 -19 115 -42 207 -61 156 -32 200 -51 214 -90 23 -67 -57 -129 -167 -129
-81 0 -146 21 -241 78 -37 23 -70 42 -71 42 -2 0 -29 -37 -61 -82 l-58 -81 30
-24 c44 -36 161 -91 234 -110 96 -24 247 -22 336 5 87 27 156 84 190 157 34
71 34 189 0 260 -46 98 -116 137 -326 185 -145 32 -223 64 -228 93 -8 40 8 65
53 87 38 18 59 21 123 18 78 -4 142 -26 218 -77 l31 -21 58 85 c37 53 55 89
49 94 -25 25 -136 84 -189 100 -74 23 -192 32 -265 21z"/>
<path d="M21753 1299 c-204 -35 -378 -196 -422 -390 -13 -57 -13 -182 0 -239
27 -116 113 -238 220 -309 232 -155 562 -89 710 140 17 27 30 51 28 53 -2 2
-48 20 -102 41 l-98 39 -16 -25 c-109 -157 -324 -174 -451 -35 -62 67 -85 125
-85 216 0 91 23 149 85 216 118 129 300 127 427 -6 l48 -50 64 26 c144 58 132
50 115 81 -25 49 -94 120 -157 162 -102 68 -250 101 -366 80z"/>
<path d="M7175 1288 c-8 -26 -85 -457 -85 -477 0 -15 20 -30 77 -60 l77 -41
26 24 c44 41 85 56 156 56 61 0 68 -2 99 -33 24 -24 36 -48 45 -92 11 -52 10
-64 -7 -104 -28 -69 -71 -94 -153 -89 -78 4 -143 33 -198 89 l-40 39 -56 -77
-56 -77 33 -34 c85 -90 187 -133 317 -135 139 -2 250 48 320 145 93 128 76
351 -35 460 -76 75 -207 111 -309 85 -35 -9 -56 -10 -56 -4 0 6 5 39 11 74
l11 63 189 0 189 0 0 100 0 100 -275 0 c-212 0 -277 -3 -280 -12z"/>
<path d="M8550 1200 l0 -100 135 0 135 0 2 -402 3 -403 108 -3 107 -3 0 405 0
405 138 3 137 3 0 95 0 95 -382 3 -383 2 0 -100z"/>
<path d="M10070 795 l0 -506 108 3 107 3 3 193 2 192 220 0 220 0 2 -192 3
-193 105 0 105 0 0 500 0 500 -105 0 -105 0 -3 -207 -2 -208 -220 0 -220 0 -2
208 -3 207 -107 3 -108 3 0 -506z"/>
<path d="M12900 795 l0 -507 248 5 c267 5 320 13 414 64 57 31 147 123 176
179 76 149 76 368 0 518 -47 91 -152 177 -268 217 -59 20 -88 23 -317 27
l-253 4 0 -507z m535 281 c61 -28 87 -56 117 -121 19 -43 23 -66 23 -160 0
-94 -4 -118 -24 -163 -27 -61 -84 -114 -140 -130 -21 -7 -95 -12 -165 -12
l-126 0 0 305 0 305 133 0 c118 0 137 -3 182 -24z"/>
<path d="M17130 1200 l0 -100 135 0 135 0 2 -402 3 -403 108 -3 107 -3 0 405
0 405 138 3 137 3 0 95 0 95 -382 3 -383 2 0 -100z"/>
<path d="M18650 796 l0 -507 108 3 107 3 3 153 3 152 77 0 77 0 111 -153 111
-152 127 -3 c69 -1 126 1 126 6 0 5 -53 81 -119 169 l-118 160 45 34 c104 77
148 175 140 310 -8 143 -83 251 -210 302 -48 19 -77 21 -320 25 l-268 4 0
-506z m528 288 c54 -38 75 -158 38 -220 -34 -56 -59 -64 -210 -64 l-136 0 0
150 0 150 143 0 c113 0 147 -3 165 -16z"/>
<path d="M22950 1200 l0 -100 135 0 135 0 2 -402 3 -403 108 -3 107 -3 0 405
0 405 138 3 137 3 0 95 0 95 -382 3 -383 2 0 -100z"/>
<path d="M14610 790 l0 -500 105 0 105 0 0 500 0 500 -105 0 -105 0 0 -500z"/>
<path d="M20290 790 l0 -500 105 0 105 0 0 500 0 500 -105 0 -105 0 0 -500z"/>
</g>
</svg>
